<?xml version="1.0" standalone="no"?>
<!DOCTYPE svg PUBLIC "-//W3C//DTD SVG 20010904//EN"
 "http://www.w3.org/TR/2001/REC-SVG-20010904/DTD/svg10.dtd">
<svg version="1.0" xmlns="http://www.w3.org/2000/svg"
 width="700.000000pt" height="700.000000pt" viewBox="0 0 700.000000 700.000000"
 preserveAspectRatio="xMidYMid meet">
<metadata>
Created by potrace 1.11, written by Peter Selinger 2001-2013
</metadata>
<g transform="translate(0.000000,700.000000) scale(0.100000,-0.100000)"
fill="#000000" stroke="none">
<path d="M2662 6849 c-89 -45 -127 -160 -83 -252 31 -64 197 -222 247 -236 54
-15 88 -14 132 4 100 42 148 155 107 252 -20 48 -178 208 -230 233 -54 26
-119 26 -173 -1z"/>
<path d="M2360 6410 c-19 -10 -334 -318 -700 -684 l-665 -666 271 0 271 0 539
540 c297 297 544 553 551 568 35 78 0 185 -75 233 -56 36 -136 39 -192 9z"/>
<path d="M5155 4455 c-225 -41 -421 -149 -583 -320 -551 -583 -288 -1536 485
-1760 356 -104 749 -7 1024 252 97 92 161 180 224 308 119 242 143 507 69 761
-114 396 -439 689 -843 759 -100 18 -279 18 -376 0z m405 -411 c277 -92 460
-347 460 -643 0 -112 -17 -187 -64 -286 -82 -173 -214 -289 -406 -357 -81 -29
-255 -36 -354 -14 -222 50 -417 227 -489 444 -126 382 106 791 498 876 104 23
249 15 355 -20z"/>
<path d="M1005 4271 c-79 -20 -161 -86 -197 -156 -29 -56 -35 -158 -14 -223
10 -28 35 -71 57 -96 107 -122 290 -133 413 -26 81 71 116 204 82 308 -22 64
-85 136 -147 168 -53 26 -144 38 -194 25z"/>
<path d="M1965 4267 c-90 -30 -144 -75 -186 -157 -19 -36 -24 -61 -24 -125 0
-88 17 -133 76 -199 74 -85 217 -113 328 -66 66 29 134 103 157 172 21 65 15
167 -14 223 -25 51 -98 119 -148 140 -53 22 -141 27 -189 12z"/>
<path d="M2938 4266 c-97 -26 -174 -102 -203 -199 -18 -62 -19 -88 -2 -155 56
-215 329 -288 485 -129 157 161 85 428 -130 484 -63 16 -88 16 -150 -1z"/>
<path d="M1011 3299 c-132 -26 -231 -148 -231 -285 0 -264 328 -389 505 -192
185 205 -2 531 -274 477z"/>
<path d="M1987 3299 c-88 -14 -161 -71 -210 -163 -33 -63 -31 -183 5 -251 56
-106 146 -160 263 -159 84 1 130 20 192 76 71 66 88 107 88 213 0 80 -3 95
-27 135 -68 116 -182 171 -311 149z"/>
<path d="M2980 3303 c-136 -22 -233 -117 -255 -250 -16 -100 39 -221 128 -280
96 -65 220 -65 319 -2 190 122 169 411 -37 504 -52 24 -113 35 -155 28z"/>
<path d="M963 2314 c-64 -23 -126 -84 -158 -155 -24 -54 -27 -71 -23 -133 6
-85 30 -138 90 -196 76 -73 180 -96 288 -64 73 22 159 107 185 183 44 135 -17
288 -142 351 -60 31 -176 37 -240 14z"/>
<path d="M1944 2318 c-58 -19 -127 -80 -158 -141 -37 -73 -44 -144 -21 -222
23 -80 107 -166 185 -189 145 -43 284 15 349 146 37 72 41 154 14 234 -22 66
-101 145 -167 167 -54 19 -153 21 -202 5z"/>
<path d="M2895 2307 c-146 -70 -210 -240 -146 -385 57 -126 209 -199 341 -162
55 15 126 65 160 111 78 108 68 273 -23 367 -60 63 -111 85 -201 89 -70 4 -88
1 -131 -20z"/>
<path d="M5160 1917 c-122 -37 -196 -82 -290 -177 -138 -137 -200 -285 -200
-475 0 -313 205 -579 510 -661 86 -23 243 -23 330 0 241 63 416 232 491 476
34 109 32 273 -4 385 -37 112 -90 198 -173 280 -82 81 -152 126 -256 162 -61
22 -94 27 -203 30 -113 3 -140 0 -205 -20z m283 -383 c62 -21 135 -87 163
-149 31 -66 33 -170 3 -235 -98 -219 -408 -229 -516 -17 -116 230 105 485 350
401z"/>
<path d="M977 1346 c-94 -35 -164 -110 -188 -201 -26 -96 13 -231 84 -291 64
-54 106 -69 197 -69 68 0 93 5 126 22 63 34 97 66 128 124 78 142 20 325 -126
400 -54 28 -166 36 -221 15z"/>
<path d="M1933 1340 c-62 -25 -128 -88 -157 -150 -29 -63 -29 -177 0 -241 47
-101 136 -160 254 -167 70 -4 79 -2 140 30 148 77 202 240 129 386 -50 102
-129 153 -244 159 -53 2 -82 -2 -122 -17z"/>
<path d="M2919 1345 c-60 -19 -133 -85 -166 -149 -22 -42 -27 -64 -26 -126 0
-91 17 -134 80 -201 104 -112 281 -120 397 -18 122 107 133 291 26 413 -71 80
-205 115 -311 81z"/>
</g>
</svg>
